<svg width="32768" height="7614" viewBox="0 0 32768 7614" fill="none" xmlns="http://www.w3.org/2000/svg">
<g clip-path="url(#clip0_434_2362)">
<path d="M15680.1 4460.77H14990.6V3236.06C14990.6 3045.59 15144.9 2891.31 15335.4 2891.31C15525.8 2891.31 15680.1 3045.59 15680.1 3236.06V4460.77ZM15119.2 4333.16H15552.5V3237.01C15552.5 3117.97 15455.4 3019.88 15335.4 3019.88C15215.3 3019.88 15118.2 3117.02 15118.2 3237.01V4333.16H15119.2Z" fill="#EBEBEB"/>
<path d="M15615.4 3248.44H15054.4V3344.63H15615.4V3248.44Z" fill="#EBEBEB"/>
<path d="M15615.4 3615.09H15054.4V3647.47H15615.4V3615.09Z" fill="#EBEBEB"/>
<path d="M15615.4 3984.6H15054.4V4016.98H15615.4V3984.6Z" fill="#EBEBEB"/>
<path d="M15615.4 4054.12H15054.4V4214.12H15615.4V4054.12Z" fill="#EBEBEB"/>
<path d="M16746.9 4460.77H16057.3V3236.06C16057.3 3045.59 16211.6 2891.31 16402.1 2891.31C16592.6 2891.31 16746.9 3045.59 16746.9 3236.06V4460.77ZM16185.9 4333.16H16619.3V3237.01C16619.3 3117.97 16522.1 3019.88 16402.1 3019.88C16282.1 3019.88 16184.9 3117.02 16184.9 3237.01V4333.16H16185.9Z" fill="#EBEBEB"/>
<path d="M16682.1 3248.44H16121.1V3344.63H16682.1V3248.44Z" fill="#EBEBEB"/>
<path d="M16682.1 3615.09H16121.1V3647.47H16682.1V3615.09Z" fill="#EBEBEB"/>
<path d="M16682.1 3984.6H16121.1V4016.98H16682.1V3984.6Z" fill="#EBEBEB"/>
<path d="M16682.1 4054.12H16121.1V4214.12H16682.1V4054.12Z" fill="#EBEBEB"/>
<path d="M17813.6 4460.77H17124.1V3236.06C17124.1 3045.59 17278.4 2891.31 17468.8 2891.31C17659.3 2891.31 17813.6 3045.59 17813.6 3236.06V4460.77ZM17252.6 4333.16H17686V3237.01C17686 3117.97 17588.8 3019.88 17468.8 3019.88C17348.8 3019.88 17251.7 3117.02 17251.7 3237.01V4333.16H17252.6Z" fill="#EBEBEB"/>
<path d="M17748.9 3248.44H17187.9V3344.63H17748.9V3248.44Z" fill="#EBEBEB"/>
<path d="M17748.9 3615.09H17187.9V3647.47H17748.9V3615.09Z" fill="#EBEBEB"/>
<path d="M17748.9 3984.6H17187.9V4016.98H17748.9V3984.6Z" fill="#EBEBEB"/>
<path d="M17748.9 4054.12H17187.9V4214.12H17748.9V4054.12Z" fill="#EBEBEB"/>
<path d="M3734.55 4460.77H3103.07V3271.3C3103.07 3097.02 3244.99 2955.12 3419.29 2955.12C3593.58 2955.12 3735.5 3097.02 3735.5 3271.3V4460.77H3734.55ZM3230.7 4333.16H3606.92V3272.25C3606.92 3168.44 3522.15 3084.64 3419.29 3084.64C3316.42 3084.64 3231.65 3169.4 3231.65 3272.25V4333.16H3230.7Z" fill="#EBEBEB"/>
<path d="M3699.3 3280.82H3138.31V3377.01H3699.3V3280.82Z" fill="#EBEBEB"/>
<path d="M3699.3 3615.09H3138.31V3647.47H3699.3V3615.09Z" fill="#EBEBEB"/>
<path d="M3699.3 3984.6H3138.31V4016.98H3699.3V3984.6Z" fill="#EBEBEB"/>
<path d="M3699.3 4054.12H3138.31V4214.12H3699.3V4054.12Z" fill="#EBEBEB"/>
<path d="M5404.19 4460.77H4772.71V3271.3C4772.71 3097.02 4914.63 2955.12 5088.93 2955.12C5263.22 2955.12 5405.14 3097.02 5405.14 3271.3V4460.77H5404.19ZM4900.34 4333.16H5276.56V3272.25C5276.56 3168.44 5191.79 3084.64 5088.93 3084.64C4986.06 3084.64 4901.29 3169.4 4901.29 3272.25V4333.16H4900.34Z" fill="#EBEBEB"/>
<path d="M5368.94 3280.82H4807.95V3377.01H5368.94V3280.82Z" fill="#EBEBEB"/>
<path d="M5368.94 3615.09H4807.95V3647.47H5368.94V3615.09Z" fill="#EBEBEB"/>
<path d="M5368.94 3984.6H4807.95V4016.98H5368.94V3984.6Z" fill="#EBEBEB"/>
<path d="M5368.94 4054.12H4807.95V4214.11H5368.94V4054.12Z" fill="#EBEBEB"/>
<path d="M4569.84 4460.77H3938.37V3271.3C3938.37 3097.02 4080.28 2955.12 4254.58 2955.12C4428.88 2955.12 4570.8 3097.02 4570.8 3271.3V4460.77H4569.84ZM4066 4333.16H4442.21V3272.25C4442.21 3168.44 4357.45 3084.64 4254.58 3084.64C4151.72 3084.64 4066.95 3169.4 4066.95 3272.25V4333.16H4066Z" fill="#EBEBEB"/>
<path d="M4533.65 3280.82H3972.66V3377.01H4533.65V3280.82Z" fill="#EBEBEB"/>
<path d="M4533.65 3615.09H3972.66V3647.47H4533.65V3615.09Z" fill="#EBEBEB"/>
<path d="M4533.65 3984.6H3972.66V4016.98H4533.65V3984.6Z" fill="#EBEBEB"/>
<path d="M4533.65 4054.12H3972.66V4214.11H4533.65V4054.12Z" fill="#EBEBEB"/>
<path d="M935.304 4460.77H303.831V3271.3C303.831 3097.02 445.746 2955.12 620.044 2955.12C794.342 2955.12 936.256 3097.02 936.256 3271.3V4460.77H935.304ZM431.459 4333.16H807.676V3272.25C807.676 3168.44 722.908 3084.64 620.044 3084.64C517.179 3084.64 432.412 3169.4 432.412 3272.25V4333.16H431.459Z" fill="#EBEBEB"/>
<path d="M900.062 3280.82H339.07V3377.01H900.062V3280.82Z" fill="#EBEBEB"/>
<path d="M900.062 3615.09H339.07V3647.47H900.062V3615.09Z" fill="#EBEBEB"/>
<path d="M900.062 3984.6H339.07V4016.98H900.062V3984.6Z" fill="#EBEBEB"/>
<path d="M900.062 4054.12H339.07V4214.12H900.062V4054.12Z" fill="#EBEBEB"/>
<path d="M12743.7 4460.77H12143.7V3201.78C12143.7 3108.45 12219 3033.21 12312.3 3033.21H12575.2C12667.6 3033.21 12743.7 3108.45 12743.7 3201.78V4460.77ZM12272.3 4333.16H12616.1V3202.73C12616.1 3180.82 12598 3162.73 12576.1 3162.73H12313.2C12291.3 3162.73 12273.2 3180.82 12273.2 3202.73V4333.16H12272.3Z" fill="#EBEBEB"/>
<path d="M12711.4 3626.52H12176.1V3658.9H12711.4V3626.52Z" fill="#EBEBEB"/>
<path d="M12711.4 3976.03H12176.1V4039.84H12711.4V3976.03Z" fill="#EBEBEB"/>
<path d="M12711.4 4079.84H12176.1V4239.83H12711.4V4079.84Z" fill="#EBEBEB"/>
<path d="M13570.5 4460.77H12970.4V3201.78C12970.4 3108.45 13045.7 3033.21 13139 3033.21H13401.9C13494.3 3033.21 13570.5 3108.45 13570.5 3201.78V4460.77ZM13099 4333.16H13442.8V3202.73C13442.8 3180.82 13424.7 3162.73 13402.8 3162.73H13140C13118.1 3162.73 13100 3180.82 13100 3202.73V4333.16H13099Z" fill="#EBEBEB"/>
<path d="M13538.1 3626.52H13002.8V3658.9H13538.1V3626.52Z" fill="#EBEBEB"/>
<path d="M13538.1 3976.03H13002.8V4039.84H13538.1V3976.03Z" fill="#EBEBEB"/>
<path d="M13538.1 4079.84H13002.8V4239.83H13538.1V4079.84Z" fill="#EBEBEB"/>
<path d="M14397.2 4460.77H13797.2V3201.78C13797.2 3108.45 13872.4 3033.21 13965.7 3033.21H14228.6C14321 3033.21 14397.2 3108.45 14397.2 3201.78V4460.77ZM13925.7 4333.16H14269.6V3202.73C14269.6 3180.82 14251.5 3162.73 14229.6 3162.73H13966.7C13944.8 3162.73 13926.7 3180.82 13926.7 3202.73V4333.16H13925.7Z" fill="#EBEBEB"/>
<path d="M14364.8 3626.52H13829.5V3658.9H14364.8V3626.52Z" fill="#EBEBEB"/>
<path d="M14364.8 3976.03H13829.5V4039.84H14364.8V3976.03Z" fill="#EBEBEB"/>
<path d="M14364.8 4079.84H13829.5V4239.83H14364.8V4079.84Z" fill="#EBEBEB"/>
<path d="M7274.79 4460.77H6674.75V3087.49H7274.79V4460.77ZM6803.33 4333.16H7147.17V3216.06H6803.33V4333.16Z" fill="#EBEBEB"/>
<path d="M7242.41 3626.52H6707.14V3658.9H7242.41V3626.52Z" fill="#EBEBEB"/>
<path d="M7242.41 3291.29H6707.14V3323.67H7242.41V3291.29Z" fill="#EBEBEB"/>
<path d="M7242.41 3976.03H6707.14V4039.84H7242.41V3976.03Z" fill="#EBEBEB"/>
<path d="M7242.41 4096.02H6707.14V4223.64H7242.41V4096.02Z" fill="#EBEBEB"/>
<path d="M8168.19 4460.77H7568.15V3087.49H8168.19V4460.77ZM7696.73 4333.16H8040.56V3216.06H7696.73V4333.16Z" fill="#EBEBEB"/>
<path d="M8135.8 3626.52H7600.53V3658.9H8135.8V3626.52Z" fill="#EBEBEB"/>
<path d="M8135.8 3291.29H7600.53V3323.67H8135.8V3291.29Z" fill="#EBEBEB"/>
<path d="M8135.8 3976.03H7600.53V4039.84H8135.8V3976.03Z" fill="#EBEBEB"/>
<path d="M8135.8 4096.02H7600.53V4223.64H8135.8V4096.02Z" fill="#EBEBEB"/>
<path d="M9061.59 4460.77H8461.55V3087.49H9061.59V4460.77ZM8590.13 4333.16H8933.96V3216.06H8590.13V4333.16Z" fill="#EBEBEB"/>
<path d="M9030.16 3626.52H8494.88V3658.9H9030.16V3626.52Z" fill="#EBEBEB"/>
<path d="M9030.16 3291.29H8494.88V3323.67H9030.16V3291.29Z" fill="#EBEBEB"/>
<path d="M9030.16 3976.03H8494.88V4039.84H9030.16V3976.03Z" fill="#EBEBEB"/>
<path d="M9030.16 4096.02H8494.88V4223.64H9030.16V4096.02Z" fill="#EBEBEB"/>
<path d="M9955.94 4460.77H9355.89V3087.49H9955.94V4460.77ZM9484.47 4333.16H9828.31V3216.06H9484.47V4333.16Z" fill="#EBEBEB"/>
<path d="M9923.55 3626.52H9388.28V3658.9H9923.55V3626.52Z" fill="#EBEBEB"/>
<path d="M9923.55 3291.29H9388.28V3323.67H9923.55V3291.29Z" fill="#EBEBEB"/>
<path d="M9923.55 3976.03H9388.28V4039.84H9923.55V3976.03Z" fill="#EBEBEB"/>
<path d="M9923.55 4096.02H9388.28V4223.64H9923.55V4096.02Z" fill="#EBEBEB"/>
<path d="M10849.3 4460.77H10249.3V3087.49H10849.3V4460.77ZM10377.9 4333.16H10721.7V3216.06H10377.9V4333.16Z" fill="#EBEBEB"/>
<path d="M10816.9 3626.52H10281.7V3658.9H10816.9V3626.52Z" fill="#EBEBEB"/>
<path d="M10816.9 3291.29H10281.7V3323.67H10816.9V3291.29Z" fill="#EBEBEB"/>
<path d="M10816.9 3976.03H10281.7V4039.84H10816.9V3976.03Z" fill="#EBEBEB"/>
<path d="M10816.9 4096.02H10281.7V4223.64H10816.9V4096.02Z" fill="#EBEBEB"/>
<path d="M11742.7 4460.77H11142.7V3087.49H11742.7V4460.77ZM11271.3 4333.16H11615.1V3216.06H11271.3V4333.16Z" fill="#EBEBEB"/>
<path d="M11711.3 3626.52H11176V3658.9H11711.3V3626.52Z" fill="#EBEBEB"/>
<path d="M11711.3 3291.29H11176V3323.67H11711.3V3291.29Z" fill="#EBEBEB"/>
<path d="M11711.3 3976.03H11176V4039.84H11711.3V3976.03Z" fill="#EBEBEB"/>
<path d="M11711.3 4096.02H11176V4223.64H11711.3V4096.02Z" fill="#EBEBEB"/>
<path d="M6380.45 4460.77H5780.4V3087.49H6380.45V4460.77ZM5908.99 4333.16H6252.82V3216.06H5908.99V4333.16Z" fill="#EBEBEB"/>
<path d="M6349.02 3626.52H5813.74V3658.9H6349.02V3626.52Z" fill="#EBEBEB"/>
<path d="M6349.02 3291.29H5813.74V3323.67H6349.02V3291.29Z" fill="#EBEBEB"/>
<path d="M6349.02 3976.03H5813.74V4039.84H6349.02V3976.03Z" fill="#EBEBEB"/>
<path d="M6349.02 4096.02H5813.74V4223.64H6349.02V4096.02Z" fill="#EBEBEB"/>
<path d="M2648.76 4460.77H2048.71V3087.49H2648.76V4460.77ZM2177.29 4333.16H2521.13V3216.06H2177.29V4333.16Z" fill="#EBEBEB"/>
<path d="M2616.37 3626.52H2081.1V3658.9H2616.37V3626.52Z" fill="#EBEBEB"/>
<path d="M2616.37 3291.29H2081.1V3323.67H2616.37V3291.29Z" fill="#EBEBEB"/>
<path d="M2616.37 3976.03H2081.1V4039.84H2616.37V3976.03Z" fill="#EBEBEB"/>
<path d="M2616.37 4096.02H2081.1V4223.64H2616.37V4096.02Z" fill="#EBEBEB"/>
<path d="M1882.99 4460.77H1282.95V3087.49H1882.99V4460.77ZM1411.53 4333.16H1755.36V3216.06H1411.53V4333.16Z" fill="#EBEBEB"/>
<path d="M1850.61 3626.52H1315.33V3658.9H1850.61V3626.52Z" fill="#EBEBEB"/>
<path d="M1850.61 3291.29H1315.33V3323.67H1850.61V3291.29Z" fill="#EBEBEB"/>
<path d="M1850.61 3976.03H1315.33V4039.84H1850.61V3976.03Z" fill="#EBEBEB"/>
<path d="M1850.61 4096.02H1315.33V4223.64H1850.61V4096.02Z" fill="#EBEBEB"/>
<path d="M29701.1 4460.77H29069.6V3271.3C29069.6 3097.02 29211.6 2955.12 29385.9 2955.12C29560.2 2955.12 29702.1 3097.02 29702.1 3271.3V4460.77H29701.1ZM29197.3 4333.16H29573.5V3272.25C29573.5 3168.44 29488.7 3084.64 29385.9 3084.64C29283 3084.64 29198.2 3169.4 29198.2 3272.25V4333.16H29197.3Z" fill="#EBEBEB"/>
<path d="M29664.9 3280.82H29103.9V3377.01H29664.9V3280.82Z" fill="#EBEBEB"/>
<path d="M29664.9 3615.09H29103.9V3647.47H29664.9V3615.09Z" fill="#EBEBEB"/>
<path d="M29664.9 3984.6H29103.9V4016.98H29664.9V3984.6Z" fill="#EBEBEB"/>
<path d="M29664.9 4054.12H29103.9V4214.11H29664.9V4054.12Z" fill="#EBEBEB"/>
<path d="M28031.5 4460.77H27400V3271.3C27400 3097.02 27541.9 2955.12 27716.2 2955.12C27890.5 2955.12 28032.4 3097.02 28032.4 3271.3V4460.77H28031.5ZM27527.6 4333.16H27903.9V3272.25C27903.9 3168.44 27819.1 3084.64 27716.2 3084.64C27613.4 3084.64 27528.6 3169.4 27528.6 3272.25V4333.16H27527.6Z" fill="#EBEBEB"/>
<path d="M27996.2 3280.82H27435.2V3377.01H27996.2V3280.82Z" fill="#EBEBEB"/>
<path d="M27996.2 3615.09H27435.2V3647.47H27996.2V3615.09Z" fill="#EBEBEB"/>
<path d="M27996.2 3984.6H27435.2V4016.98H27996.2V3984.6Z" fill="#EBEBEB"/>
<path d="M27996.2 4054.12H27435.2V4214.12H27996.2V4054.12Z" fill="#EBEBEB"/>
<path d="M28865.8 4460.77H28234.3V3271.3C28234.3 3097.02 28376.3 2955.12 28550.6 2955.12C28724.9 2955.12 28866.8 3097.02 28866.8 3271.3V4460.77H28865.8ZM28362 4333.16H28738.2V3272.25C28738.2 3168.44 28653.4 3084.64 28550.6 3084.64C28447.7 3084.64 28362.9 3169.4 28362.9 3272.25V4333.16H28362Z" fill="#EBEBEB"/>
<path d="M28830.6 3280.82H28269.6V3377.01H28830.6V3280.82Z" fill="#EBEBEB"/>
<path d="M28830.6 3615.09H28269.6V3647.47H28830.6V3615.09Z" fill="#EBEBEB"/>
<path d="M28830.6 3984.6H28269.6V4016.98H28830.6V3984.6Z" fill="#EBEBEB"/>
<path d="M28830.6 4054.12H28269.6V4214.11H28830.6V4054.12Z" fill="#EBEBEB"/>
<path d="M32500.4 4460.77H31868.9V3271.3C31868.9 3097.02 32010.8 2955.12 32185.1 2955.12C32359.4 2955.12 32501.3 3097.02 32501.3 3271.3V4460.77H32500.4ZM31996.5 4333.16H32372.7V3272.25C32372.7 3168.44 32288 3084.64 32185.1 3084.64C32082.2 3084.64 31997.5 3169.4 31997.5 3272.25V4333.16H31996.5Z" fill="#EBEBEB"/>
<path d="M32465.1 3280.82H31904.1V3377.01H32465.1V3280.82Z" fill="#EBEBEB"/>
<path d="M32465.1 3615.09H31904.1V3647.47H32465.1V3615.09Z" fill="#EBEBEB"/>
<path d="M32465.1 3984.6H31904.1V4016.98H32465.1V3984.6Z" fill="#EBEBEB"/>
<path d="M32465.1 4054.12H31904.1V4214.11H32465.1V4054.12Z" fill="#EBEBEB"/>
<path d="M20659.5 4460.77H20059.5V3201.78C20059.5 3108.45 20134.7 3033.21 20228.1 3033.21H20491C20583.3 3033.21 20659.5 3108.45 20659.5 3201.78V4460.77ZM20188.1 4333.16H20531.9V3202.73C20531.9 3180.82 20513.8 3162.73 20491.9 3162.73H20229C20207.1 3162.73 20189 3180.82 20189 3202.73V4333.16H20188.1Z" fill="#EBEBEB"/>
<path d="M20628.1 3626.52H20092.8V3658.9H20628.1V3626.52Z" fill="#EBEBEB"/>
<path d="M20628.1 3976.03H20092.8V4039.84H20628.1V3976.03Z" fill="#EBEBEB"/>
<path d="M20628.1 4079.84H20092.8V4239.83H20628.1V4079.84Z" fill="#EBEBEB"/>
<path d="M19832.8 4460.77H19232.8V3201.78C19232.8 3108.45 19308 3033.21 19401.4 3033.21H19664.2C19757.6 3033.21 19832.8 3108.45 19832.8 3201.78V4460.77ZM19361.4 4333.16H19705.2V3202.73C19705.2 3180.82 19687.1 3162.73 19665.2 3162.73H19402.3C19380.4 3162.73 19362.3 3180.82 19362.3 3202.73V4333.16H19361.4Z" fill="#EBEBEB"/>
<path d="M19801.4 3626.52H19266.1V3658.9H19801.4V3626.52Z" fill="#EBEBEB"/>
<path d="M19801.4 3976.03H19266.1V4039.84H19801.4V3976.03Z" fill="#EBEBEB"/>
<path d="M19801.4 4079.84H19266.1V4239.83H19801.4V4079.84Z" fill="#EBEBEB"/>
<path d="M19006.1 4460.77H18406V3201.78C18406 3108.45 18481.3 3033.21 18574.6 3033.21H18837.5C18929.9 3033.21 19006.1 3108.45 19006.1 3201.78V4460.77ZM18534.6 4333.16H18878.5V3202.73C18878.5 3180.82 18860.4 3162.73 18838.5 3162.73H18575.6C18553.7 3162.73 18535.6 3180.82 18535.6 3202.73V4333.16H18534.6Z" fill="#EBEBEB"/>
<path d="M18974.7 3626.52H18439.4V3658.9H18974.7V3626.52Z" fill="#EBEBEB"/>
<path d="M18974.7 3976.03H18439.4V4039.84H18974.7V3976.03Z" fill="#EBEBEB"/>
<path d="M18974.7 4079.84H18439.4V4239.83H18974.7V4079.84Z" fill="#EBEBEB"/>
<path d="M26129.4 4460.77H25529.4V3087.49H26129.4V4460.77ZM25658 4333.16H26001.8V3216.06H25658V4333.16Z" fill="#EBEBEB"/>
<path d="M26097.1 3626.52H25561.8V3658.9H26097.1V3626.52Z" fill="#EBEBEB"/>
<path d="M26097.1 3291.29H25561.8V3323.67H26097.1V3291.29Z" fill="#EBEBEB"/>
<path d="M26097.1 3976.03H25561.8V4039.84H26097.1V3976.03Z" fill="#EBEBEB"/>
<path d="M26097.1 4096.02H25561.8V4223.64H26097.1V4096.02Z" fill="#EBEBEB"/>
<path d="M25235.1 4460.77H24635.1V3087.49H25235.1V4460.77ZM24763.6 4333.16H25107.5V3216.06H24763.6V4333.16Z" fill="#EBEBEB"/>
<path d="M25203.7 3626.52H24668.4V3658.9H25203.7V3626.52Z" fill="#EBEBEB"/>
<path d="M25203.7 3291.29H24668.4V3323.67H25203.7V3291.29Z" fill="#EBEBEB"/>
<path d="M25203.7 3976.03H24668.4V4039.84H25203.7V3976.03Z" fill="#EBEBEB"/>
<path d="M25203.7 4096.02H24668.4V4223.64H25203.7V4096.02Z" fill="#EBEBEB"/>
<path d="M24341.7 4460.77H23741.7V3087.49H24341.7V4460.77ZM23870.2 4333.16H24214.1V3216.06H23870.2V4333.16Z" fill="#EBEBEB"/>
<path d="M24309.3 3626.52H23774V3658.9H24309.3V3626.52Z" fill="#EBEBEB"/>
<path d="M24309.3 3291.29H23774V3323.67H24309.3V3291.29Z" fill="#EBEBEB"/>
<path d="M24309.3 3976.03H23774V4039.84H24309.3V3976.03Z" fill="#EBEBEB"/>
<path d="M24309.3 4096.02H23774V4223.64H24309.3V4096.02Z" fill="#EBEBEB"/>
<path d="M23448.3 4460.77H22848.3V3087.49H23448.3V4460.77ZM22976.8 4333.16H23320.7V3216.06H22976.8V4333.16Z" fill="#EBEBEB"/>
<path d="M23415.9 3626.52H22880.6V3658.9H23415.9V3626.52Z" fill="#EBEBEB"/>
<path d="M23415.9 3291.29H22880.6V3323.67H23415.9V3291.29Z" fill="#EBEBEB"/>
<path d="M23415.9 3976.03H22880.6V4039.84H23415.9V3976.03Z" fill="#EBEBEB"/>
<path d="M23415.9 4096.02H22880.6V4223.64H23415.9V4096.02Z" fill="#EBEBEB"/>
<path d="M22554 4460.77H21953.9V3087.49H22554V4460.77ZM22082.5 4333.16H22426.3V3216.06H22082.5V4333.16Z" fill="#EBEBEB"/>
<path d="M22522.5 3626.52H21987.2V3658.9H22522.5V3626.52Z" fill="#EBEBEB"/>
<path d="M22522.5 3291.29H21987.2V3323.67H22522.5V3291.29Z" fill="#EBEBEB"/>
<path d="M22522.5 3976.03H21987.2V4039.84H22522.5V3976.03Z" fill="#EBEBEB"/>
<path d="M22522.5 4096.02H21987.2V4223.64H22522.5V4096.02Z" fill="#EBEBEB"/>
<path d="M21660.6 4460.77H21060.5V3087.49H21660.6V4460.77ZM21189.1 4333.16H21532.9V3216.06H21189.1V4333.16Z" fill="#EBEBEB"/>
<path d="M21629.1 3626.52H21093.9V3658.9H21629.1V3626.52Z" fill="#EBEBEB"/>
<path d="M21629.1 3291.29H21093.9V3323.67H21629.1V3291.29Z" fill="#EBEBEB"/>
<path d="M21629.1 3976.03H21093.9V4039.84H21629.1V3976.03Z" fill="#EBEBEB"/>
<path d="M21629.1 4096.02H21093.9V4223.64H21629.1V4096.02Z" fill="#EBEBEB"/>
<path d="M27022.8 4460.77H26422.8V3087.49H27022.8V4460.77ZM26551.4 4333.16H26895.2V3216.06H26551.4V4333.16Z" fill="#EBEBEB"/>
<path d="M26990.5 3626.52H26455.2V3658.9H26990.5V3626.52Z" fill="#EBEBEB"/>
<path d="M26990.5 3291.29H26455.2V3323.67H26990.5V3291.29Z" fill="#EBEBEB"/>
<path d="M26990.5 3976.03H26455.2V4039.84H26990.5V3976.03Z" fill="#EBEBEB"/>
<path d="M26990.5 4096.02H26455.2V4223.64H26990.5V4096.02Z" fill="#EBEBEB"/>
<path d="M30754.5 4460.77H30154.5V3087.49H30754.5V4460.77ZM30283.1 4333.16H30626.9V3216.06H30283.1V4333.16Z" fill="#EBEBEB"/>
<path d="M30723.1 3626.52H30187.8V3658.9H30723.1V3626.52Z" fill="#EBEBEB"/>
<path d="M30723.1 3291.29H30187.8V3323.67H30723.1V3291.29Z" fill="#EBEBEB"/>
<path d="M30723.1 3976.03H30187.8V4039.84H30723.1V3976.03Z" fill="#EBEBEB"/>
<path d="M30723.1 4096.02H30187.8V4223.64H30723.1V4096.02Z" fill="#EBEBEB"/>
<path d="M31520.3 4460.77H30920.2V3087.49H31520.3V4460.77ZM31048.8 4333.16H31392.7V3216.06H31048.8V4333.16Z" fill="#EBEBEB"/>
<path d="M31488.9 3626.52H30953.6V3658.9H31488.9V3626.52Z" fill="#EBEBEB"/>
<path d="M31488.9 3291.29H30953.6V3323.67H31488.9V3291.29Z" fill="#EBEBEB"/>
<path d="M31488.9 3976.03H30953.6V4039.84H31488.9V3976.03Z" fill="#EBEBEB"/>
<path d="M31488.9 4096.02H30953.6V4223.64H31488.9V4096.02Z" fill="#EBEBEB"/>
<path d="M32755.6 4333.16H0V4460.77H32755.6V4333.16Z" fill="#EBEBEB"/>
<path d="M15680.1 6254.98H14990.6V5030.27C14990.6 4839.8 15144.9 4685.52 15335.4 4685.52C15525.8 4685.52 15680.1 4839.8 15680.1 5030.27V6254.98ZM15119.2 6127.37H15552.5V5031.22C15552.5 4912.18 15455.4 4814.09 15335.4 4814.09C15215.3 4814.09 15118.2 4911.23 15118.2 5031.22V6127.37H15119.2Z" fill="#EBEBEB"/>
<path d="M15615.4 5042.65H15054.4V5138.84H15615.4V5042.65Z" fill="#EBEBEB"/>
<path d="M15615.4 5409.3H15054.4V5441.68H15615.4V5409.3Z" fill="#EBEBEB"/>
<path d="M15615.4 5778.81H15054.4V5811.19H15615.4V5778.81Z" fill="#EBEBEB"/>
<path d="M15615.4 5847.38H15054.4V6007.37H15615.4V5847.38Z" fill="#EBEBEB"/>
<path d="M16746.9 6254.98H16057.3V5030.27C16057.3 4839.8 16211.6 4685.52 16402.1 4685.52C16592.6 4685.52 16746.9 4839.8 16746.9 5030.27V6254.98ZM16185.9 6127.37H16619.3V5031.22C16619.3 4912.18 16522.1 4814.09 16402.1 4814.09C16282.1 4814.09 16184.9 4911.23 16184.9 5031.22V6127.37H16185.9Z" fill="#EBEBEB"/>
<path d="M16682.1 5042.65H16121.1V5138.84H16682.1V5042.65Z" fill="#EBEBEB"/>
<path d="M16682.1 5409.3H16121.1V5441.68H16682.1V5409.3Z" fill="#EBEBEB"/>
<path d="M16682.1 5778.81H16121.1V5811.19H16682.1V5778.81Z" fill="#EBEBEB"/>
<path d="M16682.1 5847.38H16121.1V6007.37H16682.1V5847.38Z" fill="#EBEBEB"/>
<path d="M17813.6 6254.98H17124.1V5030.27C17124.1 4839.8 17278.4 4685.52 17468.8 4685.52C17659.3 4685.52 17813.6 4839.8 17813.6 5030.27V6254.98ZM17252.6 6127.37H17686V5031.22C17686 4912.18 17588.8 4814.09 17468.8 4814.09C17348.8 4814.09 17251.7 4911.23 17251.7 5031.22V6127.37H17252.6Z" fill="#EBEBEB"/>
<path d="M17748.9 5042.65H17187.9V5138.84H17748.9V5042.65Z" fill="#EBEBEB"/>
<path d="M17748.9 5409.3H17187.9V5441.68H17748.9V5409.3Z" fill="#EBEBEB"/>
<path d="M17748.9 5778.81H17187.9V5811.19H17748.9V5778.81Z" fill="#EBEBEB"/>
<path d="M17748.9 5847.38H17187.9V6007.37H17748.9V5847.38Z" fill="#EBEBEB"/>
<path d="M3734.55 6254.99H3103.07V5065.51C3103.07 4891.24 3244.99 4749.34 3419.29 4749.34C3593.58 4749.34 3735.5 4891.24 3735.5 5065.51V6254.99H3734.55ZM3230.7 6127.38H3606.92V5066.47C3606.92 4962.66 3522.15 4878.86 3419.29 4878.86C3316.42 4878.86 3231.65 4963.61 3231.65 5066.47V6127.38H3230.7Z" fill="#EBEBEB"/>
<path d="M3699.3 5074.09H3138.31V5170.27H3699.3V5074.09Z" fill="#EBEBEB"/>
<path d="M3699.3 5409.31H3138.31V5441.69H3699.3V5409.31Z" fill="#EBEBEB"/>
<path d="M3699.3 5778.82H3138.31V5811.2H3699.3V5778.82Z" fill="#EBEBEB"/>
<path d="M3699.3 5847.39H3138.31V6007.38H3699.3V5847.39Z" fill="#EBEBEB"/>
<path d="M5404.19 6254.99H4772.71V5065.51C4772.71 4891.24 4914.63 4749.34 5088.93 4749.34C5263.22 4749.34 5405.14 4891.24 5405.14 5065.51V6254.99H5404.19ZM4900.34 6127.38H5276.56V5066.47C5276.56 4962.66 5191.79 4878.86 5088.93 4878.86C4986.06 4878.86 4901.29 4963.61 4901.29 5066.47V6127.38H4900.34Z" fill="#EBEBEB"/>
<path d="M5368.94 5074.09H4807.95V5170.27H5368.94V5074.09Z" fill="#EBEBEB"/>
<path d="M5368.94 5409.31H4807.95V5441.69H5368.94V5409.31Z" fill="#EBEBEB"/>
<path d="M5368.94 5778.82H4807.95V5811.2H5368.94V5778.82Z" fill="#EBEBEB"/>
<path d="M5368.94 5847.39H4807.95V6007.38H5368.94V5847.39Z" fill="#EBEBEB"/>
<path d="M4569.84 6254.99H3938.37V5065.51C3938.37 4891.24 4080.28 4749.34 4254.58 4749.34C4428.88 4749.34 4570.8 4891.24 4570.8 5065.51V6254.99H4569.84ZM4066 6127.38H4442.21V5066.47C4442.21 4962.66 4357.45 4878.86 4254.58 4878.86C4151.72 4878.86 4066.95 4963.61 4066.95 5066.47V6127.38H4066Z" fill="#EBEBEB"/>
<path d="M4533.65 5074.09H3972.66V5170.27H4533.65V5074.09Z" fill="#EBEBEB"/>
<path d="M4533.65 5409.31H3972.66V5441.69H4533.65V5409.31Z" fill="#EBEBEB"/>
<path d="M4533.65 5778.82H3972.66V5811.2H4533.65V5778.82Z" fill="#EBEBEB"/>
<path d="M4533.65 5847.39H3972.66V6007.38H4533.65V5847.39Z" fill="#EBEBEB"/>
<path d="M935.304 6254.99H303.831V5065.51C303.831 4891.24 445.746 4749.34 620.044 4749.34C794.342 4749.34 936.256 4891.24 936.256 5065.51V6254.99H935.304ZM431.459 6127.38H807.676V5066.47C807.676 4962.66 722.908 4878.86 620.044 4878.86C517.179 4878.86 432.412 4963.61 432.412 5066.47V6127.38H431.459Z" fill="#EBEBEB"/>
<path d="M900.062 5074.09H339.07V5170.27H900.062V5074.09Z" fill="#EBEBEB"/>
<path d="M900.062 5409.31H339.07V5441.69H900.062V5409.31Z" fill="#EBEBEB"/>
<path d="M900.062 5778.82H339.07V5811.2H900.062V5778.82Z" fill="#EBEBEB"/>
<path d="M900.062 5847.39H339.07V6007.38H900.062V5847.39Z" fill="#EBEBEB"/>
<path d="M12743.7 6254.99H12143.7V4995.99C12143.7 4902.66 12219 4827.43 12312.3 4827.43H12575.2C12667.6 4827.43 12743.7 4902.66 12743.7 4995.99V6254.99ZM12272.3 6127.37H12616.1V4996.94C12616.1 4975.04 12598 4956.95 12576.1 4956.95H12313.2C12291.3 4956.95 12273.2 4975.04 12273.2 4996.94V6127.37H12272.3Z" fill="#EBEBEB"/>
<path d="M12711.4 5420.74H12176.1V5453.12H12711.4V5420.74Z" fill="#EBEBEB"/>
<path d="M12711.4 5769.29H12176.1V5833.1H12711.4V5769.29Z" fill="#EBEBEB"/>
<path d="M12711.4 5874.05H12176.1V6034.04H12711.4V5874.05Z" fill="#EBEBEB"/>
<path d="M13570.5 6254.99H12970.4V4995.99C12970.4 4902.66 13045.7 4827.43 13139 4827.43H13401.9C13494.3 4827.43 13570.5 4902.66 13570.5 4995.99V6254.99ZM13099 6127.37H13442.8V4996.94C13442.8 4975.04 13424.7 4956.95 13402.8 4956.95H13140C13118.1 4956.95 13100 4975.04 13100 4996.94V6127.37H13099Z" fill="#EBEBEB"/>
<path d="M13538.1 5420.74H13002.8V5453.12H13538.1V5420.74Z" fill="#EBEBEB"/>
<path d="M13538.1 5769.29H13002.8V5833.1H13538.1V5769.29Z" fill="#EBEBEB"/>
<path d="M13538.1 5874.05H13002.8V6034.04H13538.1V5874.05Z" fill="#EBEBEB"/>
<path d="M14397.2 6254.99H13797.2V4995.99C13797.2 4902.66 13872.4 4827.43 13965.7 4827.43H14228.6C14321 4827.43 14397.2 4902.66 14397.2 4995.99V6254.99ZM13925.7 6127.37H14269.6V4996.94C14269.6 4975.04 14251.5 4956.95 14229.6 4956.95H13966.7C13944.8 4956.95 13926.7 4975.04 13926.7 4996.94V6127.37H13925.7Z" fill="#EBEBEB"/>
<path d="M14364.8 5420.74H13829.5V5453.12H14364.8V5420.74Z" fill="#EBEBEB"/>
<path d="M14364.8 5769.29H13829.5V5833.1H14364.8V5769.29Z" fill="#EBEBEB"/>
<path d="M14364.8 5874.05H13829.5V6034.04H14364.8V5874.05Z" fill="#EBEBEB"/>
<path d="M7274.79 6254.99H6674.75V4881.71H7274.79V6254.99ZM6803.33 6127.37H7147.17V5010.28H6803.33V6127.37Z" fill="#EBEBEB"/>
<path d="M7242.41 5420.74H6707.14V5453.12H7242.41V5420.74Z" fill="#EBEBEB"/>
<path d="M7242.41 5085.51H6707.14V5117.89H7242.41V5085.51Z" fill="#EBEBEB"/>
<path d="M7242.41 5769.29H6707.14V5833.1H7242.41V5769.29Z" fill="#EBEBEB"/>
<path d="M7242.41 5889.29H6707.14V6016.9H7242.41V5889.29Z" fill="#EBEBEB"/>
<path d="M8168.19 6254.99H7568.15V4881.71H8168.19V6254.99ZM7696.73 6127.37H8040.56V5010.28H7696.73V6127.37Z" fill="#EBEBEB"/>
<path d="M8135.8 5420.74H7600.53V5453.12H8135.8V5420.74Z" fill="#EBEBEB"/>
<path d="M8135.8 5085.51H7600.53V5117.89H8135.8V5085.51Z" fill="#EBEBEB"/>
<path d="M8135.8 5769.29H7600.53V5833.1H8135.8V5769.29Z" fill="#EBEBEB"/>
<path d="M8135.8 5889.29H7600.53V6016.9H8135.8V5889.29Z" fill="#EBEBEB"/>
<path d="M9061.59 6254.99H8461.55V4881.71H9061.59V6254.99ZM8590.13 6127.37H8933.96V5010.28H8590.13V6127.37Z" fill="#EBEBEB"/>
<path d="M9030.16 5420.74H8494.88V5453.12H9030.16V5420.74Z" fill="#EBEBEB"/>
<path d="M9030.16 5085.51H8494.88V5117.89H9030.16V5085.51Z" fill="#EBEBEB"/>
<path d="M9030.16 5769.29H8494.88V5833.1H9030.16V5769.29Z" fill="#EBEBEB"/>
<path d="M9030.16 5889.29H8494.88V6016.9H9030.16V5889.29Z" fill="#EBEBEB"/>
<path d="M9955.94 6254.99H9355.89V4881.71H9955.94V6254.99ZM9484.47 6127.37H9828.31V5010.28H9484.47V6127.37Z" fill="#EBEBEB"/>
<path d="M9923.55 5420.74H9388.28V5453.12H9923.55V5420.74Z" fill="#EBEBEB"/>
<path d="M9923.55 5085.51H9388.28V5117.89H9923.55V5085.51Z" fill="#EBEBEB"/>
<path d="M9923.55 5769.29H9388.28V5833.1H9923.55V5769.29Z" fill="#EBEBEB"/>
<path d="M9923.55 5889.29H9388.28V6016.9H9923.55V5889.29Z" fill="#EBEBEB"/>
<path d="M10849.3 6254.99H10249.3V4881.71H10849.3V6254.99ZM10377.9 6127.37H10721.7V5010.28H10377.9V6127.37Z" fill="#EBEBEB"/>
<path d="M10816.9 5420.74H10281.7V5453.12H10816.9V5420.74Z" fill="#EBEBEB"/>
<path d="M10816.9 5085.51H10281.7V5117.89H10816.9V5085.51Z" fill="#EBEBEB"/>
<path d="M10816.9 5769.29H10281.7V5833.1H10816.9V5769.29Z" fill="#EBEBEB"/>
<path d="M10816.9 5889.29H10281.7V6016.9H10816.9V5889.29Z" fill="#EBEBEB"/>
<path d="M11742.7 6254.99H11142.7V4881.71H11742.7V6254.99ZM11271.3 6127.37H11615.1V5010.28H11271.3V6127.37Z" fill="#EBEBEB"/>
<path d="M11711.3 5420.74H11176V5453.12H11711.3V5420.74Z" fill="#EBEBEB"/>
<path d="M11711.3 5085.51H11176V5117.89H11711.3V5085.51Z" fill="#EBEBEB"/>
<path d="M11711.3 5769.29H11176V5833.1H11711.3V5769.29Z" fill="#EBEBEB"/>
<path d="M11711.3 5889.29H11176V6016.9H11711.3V5889.29Z" fill="#EBEBEB"/>
<path d="M6380.45 6254.99H5780.4V4881.71H6380.45V6254.99ZM5908.99 6127.37H6252.82V5010.28H5908.99V6127.37Z" fill="#EBEBEB"/>
<path d="M6349.02 5420.74H5813.74V5453.12H6349.02V5420.74Z" fill="#EBEBEB"/>
<path d="M6349.02 5085.51H5813.74V5117.89H6349.02V5085.51Z" fill="#EBEBEB"/>
<path d="M6349.02 5769.29H5813.74V5833.1H6349.02V5769.29Z" fill="#EBEBEB"/>
<path d="M6349.02 5889.29H5813.74V6016.9H6349.02V5889.29Z" fill="#EBEBEB"/>
<path d="M2648.76 6254.99H2048.71V4881.71H2648.76V6254.99ZM2177.29 6127.37H2521.13V5010.28H2177.29V6127.37Z" fill="#EBEBEB"/>
<path d="M2616.37 5420.74H2081.1V5453.12H2616.37V5420.74Z" fill="#EBEBEB"/>
<path d="M2616.37 5085.51H2081.1V5117.89H2616.37V5085.51Z" fill="#EBEBEB"/>
<path d="M2616.37 5769.29H2081.1V5833.1H2616.37V5769.29Z" fill="#EBEBEB"/>
<path d="M2616.37 5889.29H2081.1V6016.9H2616.37V5889.29Z" fill="#EBEBEB"/>
<path d="M1882.99 6254.99H1282.95V4881.71H1882.99V6254.99ZM1411.53 6127.37H1755.36V5010.28H1411.53V6127.37Z" fill="#EBEBEB"/>
<path d="M1850.61 5420.74H1315.33V5453.12H1850.61V5420.74Z" fill="#EBEBEB"/>
<path d="M1850.61 5085.51H1315.33V5117.89H1850.61V5085.51Z" fill="#EBEBEB"/>
<path d="M1850.61 5769.29H1315.33V5833.1H1850.61V5769.29Z" fill="#EBEBEB"/>
<path d="M1850.61 5889.29H1315.33V6016.9H1850.61V5889.29Z" fill="#EBEBEB"/>
<path d="M29701.1 6254.99H29069.6V5065.51C29069.6 4891.24 29211.6 4749.34 29385.9 4749.34C29560.2 4749.34 29702.1 4891.24 29702.1 5065.51V6254.99H29701.1ZM29197.3 6127.38H29573.5V5066.47C29573.5 4962.66 29488.7 4878.86 29385.9 4878.86C29283 4878.86 29198.2 4963.61 29198.2 5066.47V6127.38H29197.3Z" fill="#EBEBEB"/>
<path d="M29664.9 5074.09H29103.9V5170.27H29664.9V5074.09Z" fill="#EBEBEB"/>
<path d="M29664.9 5409.31H29103.9V5441.69H29664.9V5409.31Z" fill="#EBEBEB"/>
<path d="M29664.9 5778.82H29103.9V5811.2H29664.9V5778.82Z" fill="#EBEBEB"/>
<path d="M29664.9 5847.39H29103.9V6007.38H29664.9V5847.39Z" fill="#EBEBEB"/>
<path d="M28031.5 6254.99H27400V5065.51C27400 4891.24 27541.9 4749.34 27716.2 4749.34C27890.5 4749.34 28032.4 4891.24 28032.4 5065.51V6254.99H28031.5ZM27527.6 6127.38H27903.9V5066.47C27903.9 4962.66 27819.1 4878.86 27716.2 4878.86C27613.4 4878.86 27528.6 4963.61 27528.6 5066.47V6127.38H27527.6Z" fill="#EBEBEB"/>
<path d="M27996.2 5074.09H27435.2V5170.27H27996.2V5074.09Z" fill="#EBEBEB"/>
<path d="M27996.2 5409.31H27435.2V5441.69H27996.2V5409.31Z" fill="#EBEBEB"/>
<path d="M27996.2 5778.82H27435.2V5811.2H27996.2V5778.82Z" fill="#EBEBEB"/>
<path d="M27996.2 5847.39H27435.2V6007.38H27996.2V5847.39Z" fill="#EBEBEB"/>
<path d="M28865.8 6254.99H28234.3V5065.51C28234.3 4891.24 28376.3 4749.34 28550.6 4749.34C28724.9 4749.34 28866.8 4891.24 28866.8 5065.51V6254.99H28865.8ZM28362 6127.38H28738.2V5066.47C28738.2 4962.66 28653.4 4878.86 28550.6 4878.86C28447.7 4878.86 28362.9 4963.61 28362.9 5066.47V6127.38H28362Z" fill="#EBEBEB"/>
<path d="M28830.6 5074.09H28269.6V5170.27H28830.6V5074.09Z" fill="#EBEBEB"/>
<path d="M28830.6 5409.31H28269.6V5441.69H28830.6V5409.31Z" fill="#EBEBEB"/>
<path d="M28830.6 5778.82H28269.6V5811.2H28830.6V5778.82Z" fill="#EBEBEB"/>
<path d="M28830.6 5847.39H28269.6V6007.38H28830.6V5847.39Z" fill="#EBEBEB"/>
<path d="M32500.4 6254.99H31868.9V5065.51C31868.9 4891.24 32010.8 4749.34 32185.1 4749.34C32359.4 4749.34 32501.3 4891.24 32501.3 5065.51V6254.99H32500.4ZM31996.5 6127.38H32372.7V5066.47C32372.7 4962.66 32288 4878.86 32185.1 4878.86C32082.2 4878.86 31997.5 4963.61 31997.5 5066.47V6127.38H31996.5Z" fill="#EBEBEB"/>
<path d="M32465.1 5074.09H31904.1V5170.27H32465.1V5074.09Z" fill="#EBEBEB"/>
<path d="M32465.1 5409.31H31904.1V5441.69H32465.1V5409.31Z" fill="#EBEBEB"/>
<path d="M32465.1 5778.82H31904.1V5811.2H32465.1V5778.82Z" fill="#EBEBEB"/>
<path d="M32465.1 5847.39H31904.1V6007.38H32465.1V5847.39Z" fill="#EBEBEB"/>
<path d="M20659.5 6254.99H20059.5V4995.99C20059.5 4902.66 20134.7 4827.43 20228.1 4827.43H20491C20583.3 4827.43 20659.5 4902.66 20659.5 4995.99V6254.99ZM20188.1 6127.37H20531.9V4996.94C20531.9 4975.04 20513.8 4956.95 20491.9 4956.95H20229C20207.1 4956.95 20189 4975.04 20189 4996.94V6127.37H20188.1Z" fill="#EBEBEB"/>
<path d="M20628.1 5420.74H20092.8V5453.12H20628.1V5420.74Z" fill="#EBEBEB"/>
<path d="M20628.1 5769.29H20092.8V5833.1H20628.1V5769.29Z" fill="#EBEBEB"/>
<path d="M20628.1 5874.05H20092.8V6034.04H20628.1V5874.05Z" fill="#EBEBEB"/>
<path d="M19832.8 6254.99H19232.8V4995.99C19232.8 4902.66 19308 4827.43 19401.4 4827.43H19664.2C19757.6 4827.43 19832.8 4902.66 19832.8 4995.99V6254.99ZM19361.4 6127.37H19705.2V4996.94C19705.2 4975.04 19687.1 4956.95 19665.2 4956.95H19402.3C19380.4 4956.95 19362.3 4975.04 19362.3 4996.94V6127.37H19361.4Z" fill="#EBEBEB"/>
<path d="M19801.4 5420.74H19266.1V5453.12H19801.4V5420.74Z" fill="#EBEBEB"/>
<path d="M19801.4 5769.29H19266.1V5833.1H19801.4V5769.29Z" fill="#EBEBEB"/>
<path d="M19801.4 5874.05H19266.1V6034.04H19801.4V5874.05Z" fill="#EBEBEB"/>
<path d="M19006.1 6254.99H18406V4995.99C18406 4902.66 18481.3 4827.43 18574.6 4827.43H18837.5C18929.9 4827.43 19006.1 4902.66 19006.1 4995.99V6254.99ZM18534.6 6127.37H18878.5V4996.94C18878.5 4975.04 18860.4 4956.95 18838.5 4956.95H18575.6C18553.7 4956.95 18535.6 4975.04 18535.6 4996.94V6127.37H18534.6Z" fill="#EBEBEB"/>
<path d="M18974.7 5420.74H18439.4V5453.12H18974.7V5420.74Z" fill="#EBEBEB"/>
<path d="M18974.7 5769.29H18439.4V5833.1H18974.7V5769.29Z" fill="#EBEBEB"/>
<path d="M18974.7 5874.05H18439.4V6034.04H18974.7V5874.05Z" fill="#EBEBEB"/>
<path d="M26129.4 6254.99H25529.4V4881.71H26129.4V6254.99ZM25658 6127.37H26001.8V5010.28H25658V6127.37Z" fill="#EBEBEB"/>
<path d="M26097.1 5420.74H25561.8V5453.12H26097.1V5420.74Z" fill="#EBEBEB"/>
<path d="M26097.1 5085.51H25561.8V5117.89H26097.1V5085.51Z" fill="#EBEBEB"/>
<path d="M26097.1 5769.29H25561.8V5833.1H26097.1V5769.29Z" fill="#EBEBEB"/>
<path d="M26097.1 5889.29H25561.8V6016.9H26097.1V5889.29Z" fill="#EBEBEB"/>
<path d="M25235.1 6254.99H24635.1V4881.71H25235.1V6254.99ZM24763.6 6127.37H25107.5V5010.28H24763.6V6127.37Z" fill="#EBEBEB"/>
<path d="M25203.7 5420.74H24668.4V5453.12H25203.7V5420.74Z" fill="#EBEBEB"/>
<path d="M25203.7 5085.51H24668.4V5117.89H25203.7V5085.51Z" fill="#EBEBEB"/>
<path d="M25203.7 5769.29H24668.4V5833.1H25203.7V5769.29Z" fill="#EBEBEB"/>
<path d="M25203.7 5889.29H24668.4V6016.9H25203.7V5889.29Z" fill="#EBEBEB"/>
<path d="M24341.7 6254.99H23741.7V4881.71H24341.7V6254.99ZM23870.2 6127.37H24214.1V5010.28H23870.2V6127.37Z" fill="#EBEBEB"/>
<path d="M24309.3 5420.74H23774V5453.12H24309.3V5420.74Z" fill="#EBEBEB"/>
<path d="M24309.3 5085.51H23774V5117.89H24309.3V5085.51Z" fill="#EBEBEB"/>
<path d="M24309.3 5769.29H23774V5833.1H24309.3V5769.29Z" fill="#EBEBEB"/>
<path d="M24309.3 5889.29H23774V6016.9H24309.3V5889.29Z" fill="#EBEBEB"/>
<path d="M23448.3 6254.99H22848.3V4881.71H23448.3V6254.99ZM22976.8 6127.37H23320.7V5010.28H22976.8V6127.37Z" fill="#EBEBEB"/>
<path d="M23415.9 5420.74H22880.6V5453.12H23415.9V5420.74Z" fill="#EBEBEB"/>
<path d="M23415.9 5085.51H22880.6V5117.89H23415.9V5085.51Z" fill="#EBEBEB"/>
<path d="M23415.9 5769.29H22880.6V5833.1H23415.9V5769.29Z" fill="#EBEBEB"/>
<path d="M23415.9 5889.29H22880.6V6016.9H23415.9V5889.29Z" fill="#EBEBEB"/>
<path d="M22554 6254.99H21953.9V4881.71H22554V6254.99ZM22082.5 6127.37H22426.3V5010.28H22082.5V6127.37Z" fill="#EBEBEB"/>
<path d="M22522.5 5420.74H21987.2V5453.12H22522.5V5420.74Z" fill="#EBEBEB"/>
<path d="M22522.5 5085.51H21987.2V5117.89H22522.5V5085.51Z" fill="#EBEBEB"/>
<path d="M22522.5 5769.29H21987.2V5833.1H22522.5V5769.29Z" fill="#EBEBEB"/>
<path d="M22522.5 5889.29H21987.2V6016.9H22522.5V5889.29Z" fill="#EBEBEB"/>
<path d="M21660.6 6254.99H21060.5V4881.71H21660.6V6254.99ZM21189.1 6127.37H21532.9V5010.28H21189.1V6127.37Z" fill="#EBEBEB"/>
<path d="M21629.1 5420.74H21093.9V5453.12H21629.1V5420.74Z" fill="#EBEBEB"/>
<path d="M21629.1 5085.51H21093.9V5117.89H21629.1V5085.51Z" fill="#EBEBEB"/>
<path d="M21629.1 5769.29H21093.9V5833.1H21629.1V5769.29Z" fill="#EBEBEB"/>
<path d="M21629.1 5889.29H21093.9V6016.9H21629.1V5889.29Z" fill="#EBEBEB"/>
<path d="M27022.8 6254.99H26422.8V4881.71H27022.8V6254.99ZM26551.4 6127.37H26895.2V5010.28H26551.4V6127.37Z" fill="#EBEBEB"/>
<path d="M26990.5 5420.74H26455.2V5453.12H26990.5V5420.74Z" fill="#EBEBEB"/>
<path d="M26990.5 5085.51H26455.2V5117.89H26990.5V5085.51Z" fill="#EBEBEB"/>
<path d="M26990.5 5769.29H26455.2V5833.1H26990.5V5769.29Z" fill="#EBEBEB"/>
<path d="M26990.5 5889.29H26455.2V6016.9H26990.5V5889.29Z" fill="#EBEBEB"/>
<path d="M30754.5 6254.99H30154.5V4881.71H30754.5V6254.99ZM30283.1 6127.37H30626.9V5010.28H30283.1V6127.37Z" fill="#EBEBEB"/>
<path d="M30723.1 5420.74H30187.8V5453.12H30723.1V5420.74Z" fill="#EBEBEB"/>
<path d="M30723.1 5085.51H30187.8V5117.89H30723.1V5085.51Z" fill="#EBEBEB"/>
<path d="M30723.1 5769.29H30187.8V5833.1H30723.1V5769.29Z" fill="#EBEBEB"/>
<path d="M30723.1 5889.29H30187.8V6016.9H30723.1V5889.29Z" fill="#EBEBEB"/>
<path d="M31520.3 6254.99H30920.2V4881.71H31520.3V6254.99ZM31048.8 6127.37H31392.7V5010.28H31048.8V6127.37Z" fill="#EBEBEB"/>
<path d="M31488.9 5420.74H30953.6V5453.12H31488.9V5420.74Z" fill="#EBEBEB"/>
<path d="M31488.9 5085.51H30953.6V5117.89H31488.9V5085.51Z" fill="#EBEBEB"/>
<path d="M31488.9 5769.29H30953.6V5833.1H31488.9V5769.29Z" fill="#EBEBEB"/>
<path d="M31488.9 5889.29H30953.6V6016.9H31488.9V5889.29Z" fill="#EBEBEB"/>
<path d="M32755.6 6127.37H0V6254.99H32755.6V6127.37Z" fill="#EBEBEB"/>
<path d="M32755.6 7449.22V7609.22H24162.6V6795.92C24162.6 6695.92 24103.6 6608.31 24035 6608.31C23966.4 6608.31 23907.4 6695.92 23907.4 6795.92V7609.22H8889.19V6795.92C8889.19 6695.92 8830.14 6608.31 8761.56 6608.31C8692.99 6608.31 8633.94 6695.92 8633.94 6795.92V7609.22H0V7449.22H8506.31V6795.92C8506.31 6621.64 8620.6 6480.69 8761.56 6480.69C8902.52 6480.69 9016.82 6621.64 9016.82 6795.92V7449.22H23779.8V6795.92C23779.8 6621.64 23894 6480.69 24035 6480.69C24176 6480.69 24290.3 6621.64 24290.3 6795.92V7449.22H32755.6Z" fill="#EBEBEB"/>
<path d="M23122.6 6609.26C23193 6609.26 23250.2 6666.4 23250.2 6736.87V7401.61H22995.9V6736.87C22995.9 6666.4 23053 6609.26 23123.5 6609.26M23123.5 6481.64C22982.6 6481.64 22868.3 6595.92 22868.3 6736.87V7448.27C22868.3 7493.03 22904.4 7529.22 22949.2 7529.22H23296.9C23341.6 7529.22 23377.8 7493.03 23377.8 7448.27V6736.87C23377.8 6595.92 23263.5 6481.64 23122.6 6481.64H23123.5Z" fill="#EBEBEB"/>
<path d="M22254.9 6609.26C22325.4 6609.26 22382.5 6666.4 22382.5 6736.87V7401.61H22128.2V6736.87C22128.2 6666.4 22185.4 6609.26 22255.8 6609.26M22255.8 6481.64C22114.9 6481.64 22000.6 6595.92 22000.6 6736.87V7448.27C22000.6 7493.03 22036.8 7529.22 22081.5 7529.22H22429.2C22474 7529.22 22510.1 7493.03 22510.1 7448.27V6736.87C22510.1 6595.92 22395.8 6481.64 22254.9 6481.64H22255.8Z" fill="#EBEBEB"/>
<path d="M21360.5 6609.26C21431 6609.26 21488.2 6666.4 21488.2 6736.87V7401.61H21233.9V6736.87C21233.9 6666.4 21291 6609.26 21361.5 6609.26M21361.5 6481.64C21220.5 6481.64 21106.2 6595.92 21106.2 6736.87V7448.27C21106.2 7493.03 21142.4 7529.22 21187.2 7529.22H21534.8C21579.6 7529.22 21615.8 7493.03 21615.8 7448.27V6736.87C21615.8 6595.92 21501.5 6481.64 21360.5 6481.64H21361.5Z" fill="#EBEBEB"/>
<path d="M20360.5 6609.26C20430.9 6609.26 20488.1 6666.4 20488.1 6736.87V7401.61H20233.8V6736.87C20233.8 6666.4 20290.9 6609.26 20361.4 6609.26M20361.4 6481.64C20220.5 6481.64 20106.2 6595.92 20106.2 6736.87V7448.27C20106.2 7493.03 20142.4 7529.22 20187.1 7529.22H20534.8C20579.5 7529.22 20615.7 7493.03 20615.7 7448.27V6736.87C20615.7 6595.92 20501.4 6481.64 20360.5 6481.64H20361.4Z" fill="#EBEBEB"/>
<path d="M19533.7 6609.26C19604.2 6609.26 19661.4 6666.4 19661.4 6736.87V7401.61H19407.1V6736.87C19407.1 6666.4 19464.2 6609.26 19534.7 6609.26M19534.7 6481.64C19393.7 6481.64 19279.4 6595.92 19279.4 6736.87V7448.27C19279.4 7493.03 19315.6 7529.22 19360.4 7529.22H19708C19752.8 7529.22 19789 7493.03 19789 7448.27V6736.87C19789 6595.92 19674.7 6481.64 19533.7 6481.64H19534.7Z" fill="#EBEBEB"/>
<path d="M18707 6609.26C18777.5 6609.26 18834.6 6666.4 18834.6 6736.87V7401.61H18580.3V6736.87C18580.3 6666.4 18637.5 6609.26 18708 6609.26M18708 6481.64C18567 6481.64 18452.7 6595.92 18452.7 6736.87V7448.27C18452.7 7493.03 18488.9 7529.22 18533.7 7529.22H18881.3C18926.1 7529.22 18962.3 7493.03 18962.3 7448.27V6736.87C18962.3 6595.92 18848 6481.64 18707 6481.64H18708Z" fill="#EBEBEB"/>
<path d="M3426.91 6609.26C3497.39 6609.26 3554.54 6666.4 3554.54 6736.87V7401.61H3300.23V6736.87C3300.23 6666.4 3357.38 6609.26 3427.86 6609.26M3427.86 6481.64C3286.9 6481.64 3172.6 6595.92 3172.6 6736.87V7448.27C3172.6 7493.03 3208.8 7529.22 3253.56 7529.22H3601.21C3645.97 7529.22 3682.16 7493.03 3682.16 7448.27V6736.87C3682.16 6595.92 3567.87 6481.64 3426.91 6481.64H3427.86Z" fill="#EBEBEB"/>
<path d="M2336.36 6609.26C2406.84 6609.26 2463.98 6666.4 2463.98 6736.87V7401.61H2209.68V6736.87C2209.68 6666.4 2266.83 6609.26 2337.31 6609.26M2337.31 6481.64C2196.35 6481.64 2082.05 6595.92 2082.05 6736.87V7448.27C2082.05 7493.03 2118.24 7529.22 2163.01 7529.22H2510.65C2555.42 7529.22 2591.61 7493.03 2591.61 7448.27V6736.87C2591.61 6595.92 2477.32 6481.64 2336.36 6481.64H2337.31Z" fill="#EBEBEB"/>
<path d="M1570.58 6609.26C1641.06 6609.26 1698.21 6666.4 1698.21 6736.87V7401.61H1443.91V6736.87C1443.91 6666.4 1501.05 6609.26 1571.53 6609.26M1571.53 6481.64C1430.57 6481.64 1316.28 6595.92 1316.28 6736.87V7448.27C1316.28 7493.03 1352.47 7529.22 1397.24 7529.22H1744.88C1789.65 7529.22 1825.84 7493.03 1825.84 7448.27V6736.87C1825.84 6595.92 1711.54 6481.64 1570.58 6481.64H1571.53Z" fill="#EBEBEB"/>
<path d="M619.093 6609.26C689.574 6609.26 746.721 6666.4 746.721 6736.87V7401.61H492.418V6736.87C492.418 6666.4 549.565 6609.26 620.046 6609.26M620.046 6481.64C479.084 6481.64 364.79 6595.92 364.79 6736.87V7448.27C364.79 7493.03 400.983 7529.22 445.748 7529.22H793.391C838.156 7529.22 874.349 7493.03 874.349 7448.27V6736.87C874.349 6595.92 760.056 6481.64 619.093 6481.64H620.046Z" fill="#EBEBEB"/>
<path d="M4253.63 6609.26C4324.11 6609.26 4381.26 6666.4 4381.26 6736.87V7401.61H4126.96V6736.87C4126.96 6666.4 4184.1 6609.26 4254.58 6609.26M4254.58 6481.64C4113.62 6481.64 3999.33 6595.92 3999.33 6736.87V7448.27C3999.33 7493.03 4035.52 7529.22 4080.29 7529.22H4427.93C4472.7 7529.22 4508.89 7493.03 4508.89 7448.27V6736.87C4508.89 6595.92 4394.59 6481.64 4253.63 6481.64H4254.58Z" fill="#EBEBEB"/>
<path d="M5080.36 6609.26C5150.84 6609.26 5207.98 6666.4 5207.98 6736.87V7401.61H4953.68V6736.87C4953.68 6666.4 5010.83 6609.26 5081.31 6609.26M5081.31 6481.64C4940.35 6481.64 4826.05 6595.92 4826.05 6736.87V7448.27C4826.05 7493.03 4862.25 7529.22 4907.01 7529.22H5254.65C5299.42 7529.22 5335.61 7493.03 5335.61 7448.27V6736.87C5335.61 6595.92 5221.32 6481.64 5080.36 6481.64H5081.31Z" fill="#EBEBEB"/>
<path d="M29364.9 6609.26C29435.4 6609.26 29492.5 6666.4 29492.5 6736.87V7401.61H29238.2V6736.87C29238.2 6666.4 29295.4 6609.26 29365.9 6609.26M29365.9 6481.64C29224.9 6481.64 29110.6 6595.92 29110.6 6736.87V7448.27C29110.6 7493.03 29146.8 7529.22 29191.6 7529.22H29539.2C29584 7529.22 29620.2 7493.03 29620.2 7448.27V6736.87C29620.2 6595.92 29505.9 6481.64 29364.9 6481.64H29365.9Z" fill="#EBEBEB"/>
<path d="M30455.5 6609.26C30525.9 6609.26 30583.1 6666.4 30583.1 6736.87V7401.61H30328.8V6736.87C30328.8 6666.4 30385.9 6609.26 30456.4 6609.26M30456.4 6481.64C30315.4 6481.64 30201.2 6595.92 30201.2 6736.87V7448.27C30201.2 7493.03 30237.4 7529.22 30282.1 7529.22H30629.8C30674.5 7529.22 30710.7 7493.03 30710.7 7448.27V6736.87C30710.7 6595.92 30596.4 6481.64 30455.5 6481.64H30456.4Z" fill="#EBEBEB"/>
<path d="M31221.2 6609.26C31291.7 6609.26 31348.9 6666.4 31348.9 6736.87V7401.61H31094.6V6736.87C31094.6 6666.4 31151.7 6609.26 31222.2 6609.26M31222.2 6481.64C31081.2 6481.64 30966.9 6595.92 30966.9 6736.87V7448.27C30966.9 7493.03 31003.1 7529.22 31047.9 7529.22H31395.5C31440.3 7529.22 31476.5 7493.03 31476.5 7448.27V6736.87C31476.5 6595.92 31362.2 6481.64 31221.2 6481.64H31222.2Z" fill="#EBEBEB"/>
<path d="M32172.7 6609.26C32243.2 6609.26 32300.3 6666.4 32300.3 6736.87V7401.61H32046V6736.87C32046 6666.4 32103.2 6609.26 32173.7 6609.26M32173.7 6481.64C32032.7 6481.64 31918.4 6595.92 31918.4 6736.87V7448.27C31918.4 7493.03 31954.6 7529.22 31999.4 7529.22H32347C32391.8 7529.22 32428 7493.03 32428 7448.27V6736.87C32428 6595.92 32313.7 6481.64 32172.7 6481.64H32173.7Z" fill="#EBEBEB"/>
<path d="M28538.2 6609.26C28608.7 6609.26 28665.8 6666.4 28665.8 6736.87V7401.61H28411.5V6736.87C28411.5 6666.4 28468.6 6609.26 28539.1 6609.26M28539.1 6481.64C28398.2 6481.64 28283.9 6595.92 28283.9 6736.87V7448.27C28283.9 7493.03 28320.1 7529.22 28364.8 7529.22H28712.5C28757.2 7529.22 28793.4 7493.03 28793.4 7448.27V6736.87C28793.4 6595.92 28679.1 6481.64 28538.2 6481.64H28539.1Z" fill="#EBEBEB"/>
<path d="M27711.5 6609.26C27781.9 6609.26 27839.1 6666.4 27839.1 6736.87V7401.61H27584.8V6736.87C27584.8 6666.4 27641.9 6609.26 27712.4 6609.26M27712.4 6481.64C27571.4 6481.64 27457.2 6595.92 27457.2 6736.87V7448.27C27457.2 7493.03 27493.3 7529.22 27538.1 7529.22H27885.8C27930.5 7529.22 27966.7 7493.03 27966.7 7448.27V6736.87C27966.7 6595.92 27852.4 6481.64 27711.5 6481.64H27712.4Z" fill="#EBEBEB"/>
<path d="M14097.2 6609.26C14167.7 6609.26 14224.8 6666.4 14224.8 6736.87V7401.61H13970.5V6736.87C13970.5 6666.4 14027.6 6609.26 14098.1 6609.26M14098.1 6481.64C13957.2 6481.64 13842.9 6595.92 13842.9 6736.87V7448.27C13842.9 7493.03 13879.1 7529.22 13923.8 7529.22H14271.5C14316.2 7529.22 14352.4 7493.03 14352.4 7448.27V6736.87C14352.4 6595.92 14238.1 6481.64 14097.2 6481.64H14098.1Z" fill="#EBEBEB"/>
<path d="M13270.4 6609.26C13340.9 6609.26 13398.1 6666.4 13398.1 6736.87V7401.61H13143.8V6736.87C13143.8 6666.4 13200.9 6609.26 13271.4 6609.26M13271.4 6481.64C13130.4 6481.64 13016.1 6595.92 13016.1 6736.87V7448.27C13016.1 7493.03 13052.3 7529.22 13097.1 7529.22H13444.7C13489.5 7529.22 13525.7 7493.03 13525.7 7448.27V6736.87C13525.7 6595.92 13411.4 6481.64 13270.4 6481.64H13271.4Z" fill="#EBEBEB"/>
<path d="M12443.7 6609.26C12514.2 6609.26 12571.4 6666.4 12571.4 6736.87V7401.61H12317V6736.87C12317 6666.4 12374.2 6609.26 12444.7 6609.26M12444.7 6481.64C12303.7 6481.64 12189.4 6595.92 12189.4 6736.87V7448.27C12189.4 7493.03 12225.6 7529.22 12270.4 7529.22H12618C12662.8 7529.22 12699 7493.03 12699 7448.27V6736.87C12699 6595.92 12584.7 6481.64 12443.7 6481.64H12444.7Z" fill="#EBEBEB"/>
<path d="M17468.8 6609.26C17539.3 6609.26 17596.5 6666.4 17596.5 6736.87V7401.61H17342.2V6736.87C17342.2 6666.4 17399.3 6609.26 17469.8 6609.26M17469.8 6481.64C17328.8 6481.64 17214.5 6595.92 17214.5 6736.87V7448.27C17214.5 7493.03 17250.7 7529.22 17295.5 7529.22H17643.1C17687.9 7529.22 17724.1 7493.03 17724.1 7448.27V6736.87C17724.1 6595.92 17609.8 6481.64 17468.8 6481.64H17469.8Z" fill="#EBEBEB"/>
<path d="M16390.7 6609.26C16461.1 6609.26 16518.3 6666.4 16518.3 6736.87V7401.61H16264V6736.87C16264 6666.4 16321.1 6609.26 16391.6 6609.26M16391.6 6481.64C16250.7 6481.64 16136.4 6595.92 16136.4 6736.87V7448.27C16136.4 7493.03 16172.6 7529.22 16217.3 7529.22H16565C16609.7 7529.22 16645.9 7493.03 16645.9 7448.27V6736.87C16645.9 6595.92 16531.6 6481.64 16390.7 6481.64H16391.6Z" fill="#EBEBEB"/>
<path d="M15335.4 6609.26C15405.8 6609.26 15463 6666.4 15463 6736.87V7401.61H15208.7V6736.87C15208.7 6666.4 15265.8 6609.26 15336.3 6609.26M15336.3 6481.64C15195.3 6481.64 15081.1 6595.92 15081.1 6736.87V7448.27C15081.1 7493.03 15117.2 7529.22 15162 7529.22H15509.7C15554.4 7529.22 15590.6 7493.03 15590.6 7448.27V6736.87C15590.6 6595.92 15476.3 6481.64 15335.4 6481.64H15336.3Z" fill="#EBEBEB"/>
<path d="M26710.4 6609.26C26780.9 6609.26 26838.1 6666.4 26838.1 6736.87V7401.61H26583.8V6736.87C26583.8 6666.4 26640.9 6609.26 26711.4 6609.26M26711.4 6481.64C26570.4 6481.64 26456.1 6595.92 26456.1 6736.87V7448.27C26456.1 7493.03 26492.3 7529.22 26537.1 7529.22H26884.7C26929.5 7529.22 26965.7 7493.03 26965.7 7448.27V6736.87C26965.7 6595.92 26851.4 6481.64 26710.4 6481.64H26711.4Z" fill="#EBEBEB"/>
<path d="M25841.8 6609.26C25912.3 6609.26 25969.4 6666.4 25969.4 6736.87V7401.61H25715.1V6736.87C25715.1 6666.4 25772.3 6609.26 25842.8 6609.26M25842.8 6481.64C25701.8 6481.64 25587.5 6595.92 25587.5 6736.87V7448.27C25587.5 7493.03 25623.7 7529.22 25668.5 7529.22H26016.1C26060.9 7529.22 26097.1 7493.03 26097.1 7448.27V6736.87C26097.1 6595.92 25982.8 6481.64 25841.8 6481.64H25842.8Z" fill="#EBEBEB"/>
<path d="M24948.4 6609.26C25018.9 6609.26 25076 6666.4 25076 6736.87V7401.61H24821.7V6736.87C24821.7 6666.4 24878.9 6609.26 24949.4 6609.26M24949.4 6481.64C24808.4 6481.64 24694.1 6595.92 24694.1 6736.87V7448.27C24694.1 7493.03 24730.3 7529.22 24775.1 7529.22H25122.7C25167.5 7529.22 25203.7 7493.03 25203.7 7448.27V6736.87C25203.7 6595.92 25089.4 6481.64 24948.4 6481.64H24949.4Z" fill="#EBEBEB"/>
<path d="M7849.12 6609.26C7919.6 6609.26 7976.74 6666.4 7976.74 6736.87V7401.61H7722.44V6736.87C7722.44 6666.4 7779.59 6609.26 7850.07 6609.26M7850.07 6481.64C7709.11 6481.64 7594.81 6595.92 7594.81 6736.87V7448.27C7594.81 7493.03 7631 7529.22 7675.77 7529.22H8023.41C8068.18 7529.22 8104.37 7493.03 8104.37 7448.27V6736.87C8104.37 6595.92 7990.08 6481.64 7849.12 6481.64H7850.07Z" fill="#EBEBEB"/>
<path d="M6981.44 6609.26C7051.92 6609.26 7109.07 6666.4 7109.07 6736.87V7401.61H6854.77V6736.87C6854.77 6666.4 6911.91 6609.26 6982.39 6609.26M6982.39 6481.64C6841.43 6481.64 6727.14 6595.92 6727.14 6736.87V7448.27C6727.14 7493.03 6763.33 7529.22 6808.1 7529.22H7155.74C7200.5 7529.22 7236.7 7493.03 7236.7 7448.27V6736.87C7236.7 6595.92 7122.4 6481.64 6981.44 6481.64H6982.39Z" fill="#EBEBEB"/>
<path d="M6087.09 6609.26C6157.57 6609.26 6214.72 6666.4 6214.72 6736.87V7401.61H5960.42V6736.87C5960.42 6666.4 6017.56 6609.26 6088.05 6609.26M6088.05 6481.64C5947.08 6481.64 5832.79 6595.92 5832.79 6736.87V7448.27C5832.79 7493.03 5868.98 7529.22 5913.75 7529.22H6261.39C6306.16 7529.22 6342.35 7493.03 6342.35 7448.27V6736.87C6342.35 6595.92 6228.06 6481.64 6087.09 6481.64H6088.05Z" fill="#EBEBEB"/>
<path d="M11437 6609.26C11507.5 6609.26 11564.6 6666.4 11564.6 6736.87V7401.61H11310.3V6736.87C11310.3 6666.4 11367.5 6609.26 11437.9 6609.26M11437.9 6481.64C11297 6481.64 11182.7 6595.92 11182.7 6736.87V7448.27C11182.7 7493.03 11218.9 7529.22 11263.6 7529.22H11611.3C11656 7529.22 11692.2 7493.03 11692.2 7448.27V6736.87C11692.2 6595.92 11577.9 6481.64 11437 6481.64H11437.9Z" fill="#EBEBEB"/>
<path d="M10568.4 6609.26C10638.8 6609.26 10696 6666.4 10696 6736.87V7401.61H10441.7V6736.87C10441.7 6666.4 10498.8 6609.26 10569.3 6609.26M10569.3 6481.64C10428.3 6481.64 10314.1 6595.92 10314.1 6736.87V7448.27C10314.1 7493.03 10350.2 7529.22 10395 7529.22H10742.7C10787.4 7529.22 10823.6 7493.03 10823.6 7448.27V6736.87C10823.6 6595.92 10709.3 6481.64 10568.4 6481.64H10569.3Z" fill="#EBEBEB"/>
<path d="M9674.96 6609.26C9745.44 6609.26 9802.59 6666.4 9802.59 6736.87V7401.61H9548.28V6736.87C9548.28 6666.4 9605.43 6609.26 9675.91 6609.26M9675.91 6481.64C9534.95 6481.64 9420.65 6595.92 9420.65 6736.87V7448.27C9420.65 7493.03 9456.85 7529.22 9501.61 7529.22H9849.26C9894.02 7529.22 9930.21 7493.03 9930.21 7448.27V6736.87C9930.21 6595.92 9815.92 6481.64 9674.96 6481.64H9675.91Z" fill="#EBEBEB"/>
<path d="M1247.71 2119.92H967.689V7613.03H1247.71V2119.92Z" fill="#EBEBEB"/>
<path d="M3017.36 2119.92H2737.34V7613.03H3017.36V2119.92Z" fill="#EBEBEB"/>
<path d="M5740.4 2119.92H5460.38V7613.03H5740.4V2119.92Z" fill="#EBEBEB"/>
<path d="M12083.7 2119.92H11803.7V7613.03H12083.7V2119.92Z" fill="#EBEBEB"/>
<path d="M32755.6 2113.25H25.7195V2669.42H32755.6V2113.25Z" fill="#EBEBEB"/>
<path d="M14733.4 2119.92H14453.4V7613.03H14733.4V2119.92Z" fill="#EBEBEB"/>
<path d="M18322.2 2119.92H18042.2V7613.03H18322.2V2119.92Z" fill="#EBEBEB"/>
<path d="M21023.4 2119.92H20743.3V7613.03H21023.4V2119.92Z" fill="#EBEBEB"/>
<path d="M27352.4 2119.92H27072.4V7613.03H27352.4V2119.92Z" fill="#EBEBEB"/>
<path d="M30066.9 2119.92H29786.8V7613.03H30066.9V2119.92Z" fill="#EBEBEB"/>
<path d="M31835.5 2119.92H31555.5V7613.03H31835.5V2119.92Z" fill="#EBEBEB"/>
<path d="M32756.6 2119.92H32561.3V7613.03H32756.6V2119.92Z" fill="#EBEBEB"/>
<path d="M195.252 2117.06H0V7610.17H195.252V2117.06Z" fill="#EBEBEB"/>
<path d="M32768 1793.26V1923.73H36.1935V1793.26H792.437L2336.35 1186.62H3062.12L6135.67 0H26667.6L29742.1 1186.62H30466.9L32011.8 1793.26H32768Z" fill="#EBEBEB"/>
</g>
<defs>
<clipPath id="clip0_434_2362">
<rect width="32996" height="7666" fill="white" transform="scale(0.99309)"/>
</clipPath>
</defs>
</svg>
